<svg xmlns="http://www.w3.org/2000/svg" xmlns:xlink="http://www.w3.org/1999/xlink" xml:space="preserve" version="1.1" style="shape-rendering:geometricPrecision;text-rendering:geometricPrecision;image-rendering:optimizeQuality;" viewBox="0 0 15.892 23.436249999999998" x="0px" y="0px" fill-rule="evenodd" clip-rule="evenodd"><defs><style type="text/css">
   
    .fil0 {fill:black;fill-rule:nonzero}
   
  </style></defs><g><path class="fil0" d="M5.852 11.422c-0.436,0.118 -0.84,0.181 -1.254,0.192 -0.567,0.015 -1.145,-0.068 -1.846,-0.239 -0.155,-0.037 -0.254,-0.187 -0.231,-0.342 0.162,-1.111 0.024,-2.089 -0.121,-3.112 -0.107,-0.762 -0.219,-1.55 -0.219,-2.454l0 -0.045 -0.001 -0.001c0,-1.455 0.572,-2.804 1.575,-3.794 0.998,-0.986 2.422,-1.612 4.13,-1.627l0.122 0c1.708,0.015 3.132,0.641 4.13,1.627 1.002,0.99 1.575,2.339 1.575,3.794l-0.002 0.046c0,0.904 -0.111,1.692 -0.219,2.454 -0.144,1.023 -0.282,2.001 -0.119,3.112 0.024,0.164 -0.087,0.317 -0.25,0.346 -0.692,0.168 -1.265,0.25 -1.829,0.235 -0.413,-0.011 -0.817,-0.074 -1.254,-0.192l0.185 0.812 1.835 0.433c1.158,0.273 2.121,0.867 2.792,1.694 0.663,0.816 1.041,1.854 1.041,3.029l0 1.359 -0.615 0 0 -1.359c0,-1.03 -0.327,-1.936 -0.901,-2.642 -0.586,-0.722 -1.433,-1.242 -2.456,-1.484l-0.52 -0.122c0.011,0.565 -0.101,1.079 -0.314,1.503 -0.161,0.319 -0.38,0.588 -0.65,0.789 -0.274,0.203 -0.596,0.336 -0.958,0.38 -0.454,0.056 -0.971,-0.027 -1.532,-0.285 -0.561,0.258 -1.078,0.341 -1.532,0.285 -0.362,-0.044 -0.684,-0.177 -0.958,-0.38 -0.27,-0.201 -0.489,-0.47 -0.65,-0.789 -0.213,-0.424 -0.325,-0.938 -0.314,-1.503l-0.52 0.122c-1.023,0.242 -1.87,0.762 -2.456,1.484 -0.574,0.706 -0.901,1.612 -0.901,2.642l0 1.359 -0.615 0 0 -1.359c0,-1.175 0.377,-2.213 1.041,-3.029 0.671,-0.827 1.634,-1.421 2.792,-1.694l1.835 -0.433 0.184 -0.812zm4.927 1.573l-0.531 -0.125c-0.067,0.485 -0.264,0.914 -0.569,1.304l-0.013 0.019c-0.27,0.34 -0.623,0.648 -1.046,0.936 0.285,0.082 0.548,0.104 0.784,0.075 0.254,-0.031 0.479,-0.123 0.667,-0.262 0.191,-0.143 0.349,-0.338 0.467,-0.573 0.188,-0.373 0.276,-0.846 0.241,-1.374zm-1.39 -1.673c-0.491,0.248 -0.996,0.387 -1.443,0.387 -0.449,0 -0.953,-0.139 -1.443,-0.385l-0.271 1.195c0.007,0.491 0.175,0.914 0.474,1.292l0.012 0.016c0.294,0.365 0.712,0.694 1.229,1.006 0.521,-0.315 0.943,-0.649 1.239,-1.022l0.012 -0.015c0.292,-0.374 0.456,-0.791 0.463,-1.273l-0.272 -1.201zm-2.117 3.807c-0.414,-0.282 -0.762,-0.585 -1.031,-0.919l-0.015 -0.017c-0.313,-0.396 -0.515,-0.831 -0.583,-1.323l-0.53 0.125c-0.035,0.528 0.052,1.001 0.24,1.374 0.119,0.235 0.277,0.43 0.468,0.573 0.188,0.139 0.412,0.231 0.667,0.262 0.236,0.029 0.498,0.007 0.784,-0.075zm2.9 -4.306c0.4,0.111 0.765,0.169 1.136,0.179 0.437,0.011 0.889,-0.044 1.42,-0.161 -0.116,-1.077 0.017,-2.02 0.156,-3.004 0.105,-0.746 0.214,-1.516 0.214,-2.371l-0.001 -0.045c0,-1.289 -0.505,-2.483 -1.39,-3.357 -0.891,-0.879 -2.167,-1.439 -3.705,-1.452l-0.112 0c-1.538,0.013 -2.815,0.573 -3.705,1.452 -0.885,0.874 -1.39,2.068 -1.39,3.357l-0.002 0 0.001 0.043c0,0.857 0.108,1.627 0.214,2.373 0.139,0.984 0.272,1.927 0.155,3.004 0.531,0.117 0.984,0.172 1.421,0.161 0.369,-0.01 0.734,-0.068 1.132,-0.178 -0.149,-0.117 -0.292,-0.243 -0.428,-0.379 -0.673,-0.673 -1.157,-1.567 -1.157,-2.551l0 -3.078c0,-0.17 0.137,-0.307 0.307,-0.307 0.657,0 1.25,-0.08 1.769,-0.226 0.409,-0.115 0.773,-0.272 1.088,-0.465 -0.277,-0.346 -0.476,-0.737 -0.589,-1.162 -0.044,-0.163 0.053,-0.332 0.217,-0.375 0.164,-0.044 0.332,0.053 0.376,0.217 0.186,0.696 0.661,1.285 1.374,1.697 0.707,0.408 1.648,0.644 2.781,0.644 0.169,0 0.307,0.137 0.307,0.307l0 2.748c0,0.982 -0.484,1.875 -1.158,2.548 -0.136,0.136 -0.281,0.264 -0.431,0.381zm-1.804 -6.098c-0.235,-0.135 -0.448,-0.287 -0.639,-0.454 -0.388,0.253 -0.843,0.458 -1.357,0.602 -0.49,0.139 -1.035,0.223 -1.626,0.245l0 2.776c0,0.804 0.408,1.548 0.977,2.117 0.664,0.664 1.532,1.083 2.223,1.083 0.687,0 1.557,-0.421 2.223,-1.086 0.568,-0.569 0.977,-1.312 0.977,-2.114l0 -2.446c-1.106,-0.041 -2.046,-0.3 -2.778,-0.723z"/></g><text x="0" y="33.748999999999995" fill="#000000" font-size="5px" font-weight="bold" font-family="'Helvetica Neue', Helvetica, Arial-Unicode, Arial, Sans-serif">Created by Deemak Daksina</text><text x="0" y="38.748999999999995" fill="#000000" font-size="5px" font-weight="bold" font-family="'Helvetica Neue', Helvetica, Arial-Unicode, Arial, Sans-serif">from the Noun Project</text></svg>